<svg width="164" height="56" viewBox="0 0 164 56" fill="none" xmlns="http://www.w3.org/2000/svg">
<g clip-path="url(#clip0)">
<path fill-rule="evenodd" clip-rule="evenodd" d="M30.0128 2.26268C28.271 -0.754229 23.9165 -0.754223 22.1747 2.26268L0.613033 39.6086C-1.12878 42.6255 1.04849 46.3966 4.53211 46.3966H18.7386L18.7386 46.3966L26.0939 19.8468V19.5637L32.7549 46.3966H47.6554C51.139 46.3966 53.3163 42.6255 51.5745 39.6086L30.0128 2.26268Z" fill="#6F61E8"/>
<path opacity="0.5" d="M18.7386 46.3966L26.094 56.0152V19.8464L18.7386 46.3966Z" fill="#6F61E8"/>
<path d="M74.1924 39.2454H77.6464V26.4878H90.014V23.4238H77.6464V13.7859H91.2954V10.7219H74.1924V39.2454ZM100.052 10.7219H96.7654V39.2454H100.052V10.7219ZM108.189 47.2676C111.156 47.2676 113.245 45.6938 114.485 42.3651L123.593 17.9085L120 17.8528L114.095 34.9H113.872L107.967 17.8528H104.401L112.312 39.3568L111.699 41.0281C110.501 44.2871 109.025 44.5935 106.63 43.9807L105.794 46.8776C106.128 47.0447 107.075 47.2676 108.189 47.2676ZM136.145 39.691C140.491 39.691 143.666 37.5184 144.669 34.2872L141.493 33.3958C140.658 35.6242 138.722 36.7384 136.145 36.7384C132.287 36.7384 129.627 34.2454 129.474 29.6633H145.003V28.2705C145.003 20.304 140.268 17.5742 135.811 17.5742C130.017 17.5742 126.173 22.1424 126.173 28.7162C126.173 35.29 129.962 39.691 136.145 39.691ZM129.474 26.8221C129.697 23.4934 132.051 20.5268 135.811 20.5268C139.376 20.5268 141.661 23.2009 141.661 26.8221H129.474ZM150.003 39.2454H153.29V25.7079C153.29 22.8109 155.574 20.694 158.694 20.694C159.571 20.694 160.477 20.8611 160.699 20.9168V17.5742C160.323 17.5464 159.46 17.5185 158.972 17.5185C156.41 17.5185 154.181 18.967 153.401 21.0839H153.179V17.8528H150.003V39.2454Z" fill="black"/>
</g>
<defs>
<clipPath id="clip0">
<rect width="164" height="56" fill="white"/>
</clipPath>
</defs>
</svg>
